# xmcd
#
# Track frame offsets: 
#        150
#        17144
#        36353
#        51244
#        71431
#        80898
#        93852
#        112101
#        130646
#        148717
#        165372
#        186591
#        201043
#        223750
#        240860
#        254110
#
# Disc length: 3535 seconds
#
# Revision: 3
# Processed by: cddbd v1.5.2PL0 Copyright (c) Steve Scherf et al.
# Submitted via: ExactAudioCopy v1.0b3
#
DISCID=eb0dcd10
DTITLE=Enya - A Tribute To Best Of Enya
DYEAR=2009
DGENRE=Celtic
TTITLE0=Any Where Is
TTITLE1=May It Be
TTITLE2=Only If
TTITLE3=Orinoco Flow
TTITLE4=The Ring Goes South
TTITLE5=Book Of Days
TTITLE6=Carribean Blue
TTITLE7=How Can I Keep From Singing
TTITLE8=Samwise The Brave
TTITLE9=Marble Halls
TTITLE10=China Roses
TTITLE11=manz Meetings
TTITLE12=On Mz Waz Home
TTITLE13=The Council Of Elrond
TTITLE14=The Celts
TTITLE15=Watermark
EXTD=YEAR: 2009
EXTT0=
EXTT1=
EXTT2=
EXTT3=
EXTT4=
EXTT5=
EXTT6=
EXTT7=
EXTT8=
EXTT9=
EXTT10=
EXTT11=
EXTT12=
EXTT13=
EXTT14=
EXTT15=
PLAYORDER=
